<svg width="20" height="21" viewBox="0 0 20 21" fill="none" xmlns="http://www.w3.org/2000/svg">
<path fill-rule="evenodd" clip-rule="evenodd" d="M0 9.38462C0 5.0301 4.47712 1.5 10 1.5C15.5229 1.5 20 5.0301 20 9.38462C20 13.7392 15.5229 17.2692 10 17.2692C9.39385 17.2692 8.80029 17.2268 8.22385 17.1452C7.64683 17.5518 4.31308 19.8936 3.99846 19.9375C3.99846 19.9375 3.86942 19.9877 3.75971 19.9231C3.65 19.8585 3.6699 19.689 3.6699 19.689C3.70298 19.4636 4.53413 16.5934 4.68731 16.0651C1.87173 14.6702 0 12.1999 0 9.38462ZM3.89423 11.5861C3.89423 11.8899 4.15298 12.137 4.47116 12.137C4.78933 12.137 5.04808 11.8899 5.04808 11.5861V8.15865H5.94827C6.26039 8.15865 6.51443 7.90519 6.51443 7.59375C6.51443 7.28231 6.26048 7.02885 5.94827 7.02885H2.99404C2.68193 7.02885 2.42789 7.28231 2.42789 7.59375C2.42789 7.90519 2.68183 8.15865 2.99404 8.15865H3.89423V11.5861ZM9.04991 11.8747C9.10539 12.0318 9.28943 12.1295 9.53 12.1295C9.65653 12.1296 9.78161 12.1025 9.89673 12.05C10.0558 11.9768 10.2087 11.775 10.0331 11.2296L8.65366 7.59894C8.55625 7.32212 8.26096 7.0374 7.88414 7.02894C7.50837 7.0375 7.21308 7.32212 7.11587 7.59837L5.73587 11.2307C5.56068 11.7748 5.71356 11.9765 5.8726 12.0499C5.9877 12.1025 6.11278 12.1296 6.23933 12.1295C6.47991 12.1295 6.66385 12.0319 6.71914 11.8751L7.005 11.1267L8.76423 11.1268L9.04991 11.8747ZM7.88462 8.46789L8.46087 10.1049H7.30837L7.88462 8.46789ZM10.4087 11.524C10.4087 11.8156 10.6566 12.0529 10.9615 12.0529H12.8125C13.1174 12.0529 13.3654 11.8156 13.3654 11.524C13.3654 11.2325 13.1174 10.9952 12.8125 10.9952H11.5865V7.60577C11.5865 7.2876 11.3223 7.02885 10.9976 7.02885C10.6729 7.02885 10.4087 7.2876 10.4087 7.60577V11.524ZM13.5898 11.5526C13.5898 11.8708 13.8486 12.1295 14.1667 12.1295C14.3197 12.1293 14.4664 12.0684 14.5746 11.9602C14.6828 11.852 14.7437 11.7053 14.7438 11.5523V10.2936L14.944 10.0934L16.297 11.8861C16.3506 11.9576 16.4202 12.0156 16.5002 12.0555C16.5803 12.0953 16.6685 12.1158 16.7579 12.1154C16.8832 12.1157 17.0051 12.0748 17.1049 11.9989C17.1655 11.9535 17.2165 11.8964 17.255 11.8311C17.2934 11.7658 17.3185 11.6935 17.3288 11.6185C17.3395 11.5434 17.3353 11.467 17.3163 11.3936C17.2972 11.3203 17.2638 11.2514 17.218 11.1911L15.7979 9.30971L17.1126 7.99519C17.203 7.90471 17.2483 7.78 17.2399 7.64394C17.2316 7.50904 17.1713 7.37914 17.0703 7.27817C16.9619 7.1699 16.8173 7.10779 16.6733 7.10779C16.5498 7.10779 16.4361 7.15337 16.3533 7.23615L14.7437 8.84577V7.60577C14.7437 7.2876 14.4849 7.02885 14.1667 7.02885C13.8486 7.02885 13.5898 7.2876 13.5898 7.60577V11.5526Z" fill="black"/>
</svg>
