<svg width="20" height="21" viewBox="0 0 20 21" fill="none" xmlns="http://www.w3.org/2000/svg">
<g clip-path="url(#clip0)">
<path fill-rule="evenodd" clip-rule="evenodd" d="M20 8.6151C20 4.14041 15.5142 0.5 9.9999 0.5C4.48638 0.5 0 4.14041 0 8.6151C0 12.6266 3.55759 15.9862 8.36316 16.6215C8.68886 16.6917 9.13207 16.8362 9.24422 17.1146C9.34505 17.3674 9.31016 17.7635 9.27642 18.0188C9.27642 18.0188 9.1591 18.7245 9.1338 18.8748L9.12992 18.897C9.08245 19.1678 8.96267 19.851 9.9999 19.4138C11.0673 18.9641 15.759 16.0228 17.857 13.608H17.8566C19.3058 12.0188 20 10.406 20 8.6151ZM7.96817 6.45276H7.26674C7.15919 6.45276 7.07178 6.53999 7.07178 6.64715V11.0045C7.07178 11.1119 7.15919 11.1989 7.26674 11.1989H7.96817C8.07572 11.1989 8.16294 11.1119 8.16294 11.0045V6.64715C8.16294 6.53999 8.07572 6.45276 7.96817 6.45276ZM12.0947 6.45276H12.7962C12.9039 6.45276 12.9909 6.53999 12.9909 6.64715V11.0045C12.9909 11.1119 12.9039 11.1989 12.7962 11.1989H12.0947C12.0775 11.1989 12.0608 11.1964 12.0449 11.1922L12.0431 11.1918L12.042 11.1916L12.0351 11.1894L12.0288 11.1872L12.0262 11.1863L12.023 11.1851L12.0134 11.1811C12.0104 11.1797 12.0071 11.1782 12.0042 11.1765L12.0028 11.1758L11.9987 11.1736L11.9922 11.1698L11.9866 11.1663L11.9847 11.1648C11.9661 11.1521 11.949 11.1362 11.9352 11.1167L9.93597 8.41655V11.0045C9.93597 11.1119 9.84874 11.1989 9.74101 11.1989H9.03976C8.93222 11.1989 8.8448 11.1119 8.8448 11.0045V6.64715C8.8448 6.53999 8.93222 6.45276 9.03976 6.45276H9.74101L9.74446 6.45295L9.74791 6.45314C9.75136 6.45334 9.75462 6.45334 9.75788 6.45372L9.76047 6.45398L9.76048 6.45398C9.76306 6.45424 9.76565 6.45449 9.76823 6.45506L9.77189 6.45541L9.77647 6.45602L9.78759 6.45851L9.79082 6.45942L9.7943 6.46043C9.79833 6.46139 9.80216 6.46273 9.80599 6.46407L9.81232 6.46637C9.81615 6.46771 9.81979 6.46944 9.82343 6.47116L9.82344 6.47116C9.82476 6.47164 9.826 6.47227 9.82726 6.47291L9.82957 6.47404C9.83302 6.47577 9.83647 6.47787 9.83993 6.47998C9.84203 6.48094 9.84395 6.48209 9.84587 6.48343C9.84798 6.48473 9.85003 6.48616 9.85208 6.48761L9.85603 6.49033L9.85741 6.49138L9.85742 6.49139L9.85746 6.49141C9.85869 6.49234 9.8599 6.49325 9.86101 6.49436C9.86465 6.49704 9.8681 6.49992 9.87136 6.50299L9.87501 6.50625C9.87903 6.51008 9.88287 6.51391 9.8867 6.51832L9.88804 6.51947C9.89341 6.5258 9.89859 6.53232 9.90319 6.53922L11.8999 9.23588V6.64715C11.8999 6.53999 11.9872 6.45276 12.0947 6.45276ZM6.27735 10.1078H4.37145V6.64743C4.37145 6.53988 4.28423 6.45266 4.17688 6.45266H3.47525C3.36771 6.45266 3.28048 6.53988 3.28048 6.64743V11.004V11.0044C3.28048 11.0567 3.30138 11.1041 3.33493 11.139L3.33612 11.1404L3.33761 11.1419L3.34048 11.1445C3.37557 11.1783 3.42272 11.199 3.47506 11.199H3.47525H6.27735C6.38489 11.199 6.47173 11.1116 6.47173 11.004V10.3026C6.47173 10.1951 6.38489 10.1078 6.27735 10.1078ZM16.8641 7.34905C16.8641 7.45679 16.7773 7.54382 16.6697 7.54382H14.764V8.28015H16.6697C16.7773 8.28015 16.8641 8.36756 16.8641 8.47511V9.17654C16.8641 9.28409 16.7773 9.37131 16.6697 9.37131H14.764V10.1078H16.6697C16.7773 10.1078 16.8641 10.1952 16.8641 10.3026V11.0042C16.8641 11.1116 16.7773 11.199 16.6697 11.199H13.8676H13.8672C13.8151 11.199 13.7677 11.1781 13.7328 11.1445C13.7319 11.1438 13.7307 11.1428 13.73 11.1419C13.729 11.1411 13.7281 11.1399 13.7273 11.139C13.6937 11.1041 13.6728 11.0567 13.6728 11.0044V11.0042V6.64762V6.64743C13.6728 6.59529 13.6936 6.54813 13.7269 6.51324L13.73 6.50979C13.7304 6.50926 13.7309 6.50883 13.7315 6.50836C13.7318 6.50814 13.732 6.50792 13.7323 6.50768C13.7674 6.47375 13.8147 6.45266 13.8672 6.45266H13.8676H16.6697C16.7773 6.45266 16.8641 6.54008 16.8641 6.64762V7.34905Z" fill="black"/>
</g>
<defs>
<clipPath id="clip0">
<rect width="20" height="20" fill="white" transform="translate(0 0.5)"/>
</clipPath>
</defs>
</svg>
