<svg width="20" height="21" viewBox="0 0 20 21" fill="none" xmlns="http://www.w3.org/2000/svg">
<g clip-path="url(#clip0)">
<path fill-rule="evenodd" clip-rule="evenodd" d="M17.3258 2.45009C16.8291 1.99252 14.8198 0.534457 10.3472 0.514304C10.3472 0.514304 5.07093 0.196612 2.49976 2.5556C1.06895 3.98758 0.565151 6.08103 0.511808 8.67947C0.458464 11.2779 0.389709 16.1452 5.0816 17.4646L5.08634 17.4658L5.08397 19.4798C5.08397 19.4798 5.05433 20.2954 5.59014 20.4614C6.23975 20.6629 6.62146 20.0429 7.24143 19.3755C7.58165 19.0092 8.05107 18.4698 8.40551 18.0585C11.6144 18.3276 14.0825 17.7112 14.3634 17.6199C15.0119 17.4089 18.6772 16.9395 19.2734 12.0733C19.8887 7.05426 18.9759 3.88089 17.3258 2.45009ZM17.8687 11.7106C17.3649 15.7742 14.3919 16.0314 13.8442 16.2069C13.6107 16.2816 11.4426 16.8209 8.71728 16.6431C8.71728 16.6431 6.68547 19.0934 6.05127 19.7311C5.95288 19.8307 5.83671 19.871 5.75847 19.852C5.64941 19.8248 5.61859 19.6956 5.62096 19.5071L5.63756 16.1595C1.66878 15.057 1.89993 10.914 1.94498 8.74467C1.99002 6.57535 2.39781 4.79722 3.60812 3.60232C5.78337 1.63215 10.2643 1.92614 10.2643 1.92614C14.0481 1.94273 15.8618 3.08311 16.2826 3.46481C17.6779 4.65972 18.3891 7.52013 17.8687 11.7106ZM10.7266 11.9548C10.7266 11.9548 11.0822 11.9856 11.273 11.7485L11.6465 11.2791C11.8266 11.0468 12.2617 10.8974 12.6872 11.1345C13.2503 11.4522 13.9794 11.9524 14.4784 12.4183C14.7534 12.6506 14.8174 12.992 14.6302 13.3524L14.6278 13.3595C14.4357 13.7009 14.1773 14.0198 13.8513 14.3161L13.8442 14.3221C13.4779 14.6279 13.0559 14.8057 12.6043 14.6587L12.596 14.6469C11.7863 14.4181 9.84343 13.4271 8.60466 12.4396C6.57878 10.8405 5.13968 8.20412 4.7402 6.7911L4.72834 6.7828C4.58135 6.32997 4.76035 5.90796 5.065 5.54285L5.07093 5.53574C5.36847 5.20975 5.68735 4.95251 6.02756 4.75929L6.03468 4.75811C6.39504 4.56962 6.73644 4.63364 6.96879 4.90865C7.27462 5.22516 7.84955 5.98501 8.25259 6.69982C8.48968 7.12539 8.3415 7.56044 8.10797 7.74062L7.63855 8.11403C7.40146 8.30488 7.43228 8.6605 7.43228 8.6605C7.43228 8.6605 8.12694 11.2909 10.7266 11.9548ZM14.8174 9.77361C14.9573 9.77243 15.0699 9.65863 15.0688 9.51875C15.0557 7.85442 14.546 6.51845 13.5538 5.54997C12.564 4.58503 11.3169 4.09071 9.84817 4.08005C9.70947 4.08005 9.59449 4.19147 9.5933 4.33135C9.5933 4.47123 9.70473 4.58503 9.84461 4.58622C11.1782 4.5957 12.3079 5.04142 13.2005 5.9127C14.0932 6.7828 14.5507 7.99786 14.5626 9.52349C14.5638 9.66218 14.6764 9.77361 14.8151 9.77361H14.8174ZM13.4862 9.2544H13.4803C13.3404 9.25084 13.2302 9.13586 13.2337 8.99598C13.2527 8.13062 13.0061 7.43123 12.4786 6.85511C11.9535 6.28137 11.2327 5.96723 10.2737 5.89729C10.135 5.88662 10.0295 5.76571 10.0402 5.62702C10.0509 5.48714 10.1718 5.38282 10.3105 5.3923C11.3892 5.47173 12.2439 5.84869 12.852 6.51371C13.4625 7.17992 13.7612 8.01919 13.7387 9.00665C13.7363 9.14534 13.6237 9.2544 13.4862 9.2544ZM12.1882 8.81935C12.0542 8.81935 11.9428 8.71385 11.9357 8.57871C11.893 7.72047 11.4888 7.29964 10.6626 7.25578C10.5239 7.24748 10.416 7.12894 10.4243 6.98906C10.4314 6.85037 10.5499 6.7425 10.6898 6.75079C11.7792 6.80888 12.385 7.43241 12.4407 8.55382C12.4478 8.6937 12.3411 8.81224 12.2012 8.81935H12.1882Z" fill="black"/>
</g>
<defs>
<clipPath id="clip0">
<rect width="20" height="20" fill="white" transform="translate(0 0.5)"/>
</clipPath>
</defs>
</svg>
