<svg width="20" height="21" viewBox="0 0 20 21" fill="none" xmlns="http://www.w3.org/2000/svg">
<g clip-path="url(#clip0)">
<path d="M0.0473633 20.5L1.4532 15.3642C0.585697 13.8608 0.129863 12.1567 0.130697 10.4092C0.133197 4.94583 4.57903 0.5 10.0415 0.5C12.6924 0.500833 15.1807 1.53333 17.0524 3.40667C18.9232 5.28 19.9532 7.77 19.9524 10.4183C19.9499 15.8825 15.504 20.3283 10.0415 20.3283C8.3832 20.3275 6.74903 19.9117 5.30153 19.1217L0.0473633 20.5ZM5.54486 17.3275C6.94153 18.1567 8.27486 18.6533 10.0382 18.6542C14.5782 18.6542 18.2765 14.9592 18.279 10.4167C18.2807 5.865 14.5999 2.175 10.0449 2.17333C5.50153 2.17333 1.8057 5.86833 1.80403 10.41C1.8032 12.2642 2.34653 13.6525 3.25903 15.105L2.42653 18.145L5.54486 17.3275ZM15.034 12.7742C14.9724 12.6708 14.8074 12.6092 14.559 12.485C14.3115 12.3608 13.094 11.7617 12.8665 11.6792C12.6399 11.5967 12.4749 11.555 12.309 11.8033C12.144 12.0508 11.669 12.6092 11.5249 12.7742C11.3807 12.9392 11.2357 12.96 10.9882 12.8358C10.7407 12.7117 9.94236 12.4508 8.99653 11.6067C8.2607 10.95 7.7632 10.1392 7.61903 9.89083C7.47486 9.64333 7.60403 9.50917 7.72736 9.38583C7.83903 9.275 7.97486 9.09667 8.09903 8.95167C8.22486 8.80833 8.2657 8.705 8.34903 8.53917C8.43153 8.37417 8.3907 8.22917 8.3282 8.105C8.2657 7.98167 7.7707 6.7625 7.56486 6.26667C7.3632 5.78417 7.15903 5.84917 7.00736 5.84167L6.53236 5.83333C6.36736 5.83333 6.09903 5.895 5.87236 6.14333C5.6457 6.39167 5.0057 6.99 5.0057 8.20917C5.0057 9.42833 5.8932 10.6058 6.01653 10.7708C6.1407 10.9358 7.76236 13.4375 10.2465 14.51C10.8374 14.765 11.299 14.9175 11.6582 15.0317C12.2515 15.22 12.7915 15.1933 13.2182 15.13C13.694 15.0592 14.6832 14.5308 14.8899 13.9525C15.0965 13.3733 15.0965 12.8775 15.034 12.7742Z" fill="black"/>
</g>
<defs>
<clipPath id="clip0">
<rect width="20" height="20" fill="white" transform="translate(0 0.5)"/>
</clipPath>
</defs>
</svg>
