<svg width="24" height="24" viewBox="0 0 24 24" fill="none" xmlns="http://www.w3.org/2000/svg">
<rect width="24" height="24" fill="black"/>
<path d="M19.5 12.0458C19.5 7.87838 16.1421 4.5 12 4.5C7.85786 4.5 4.5 7.87838 4.5 12.0458C4.5 15.8121 7.24263 18.9339 10.8281 19.5V14.2271H8.92383V12.0458H10.8281V10.3834C10.8281 8.49222 11.9479 7.44759 13.661 7.44759C14.4813 7.44759 15.3398 7.59497 15.3398 7.59497V9.45195H14.3941C13.4625 9.45195 13.1719 10.0337 13.1719 10.631V12.0458H15.252L14.9194 14.2271H13.1719V19.5C16.7574 18.9339 19.5 15.8121 19.5 12.0458Z" fill="white"/>
</svg>
