<svg width="692" height="362" viewBox="0 0 692 362" fill="none" xmlns="http://www.w3.org/2000/svg">
<rect x="13" width="679" height="362" fill="#FFFCF2"/>
<mask id="mask0" mask-type="alpha" maskUnits="userSpaceOnUse" x="39" y="179" width="1" height="137">
<rect x="39" y="179" width="1" height="137" fill="white"/>
</mask>
<g mask="url(#mask0)">
<path d="M39 295C180 269 480 191.662 668 10" stroke="url(#paint0_linear)" stroke-width="3" stroke-linecap="round"/>
</g>
<path d="M21.2251 54.8182H19.7287L17.1882 56.4787V57.9503L19.6243 56.3594H19.6839V65H21.2251V54.8182Z" fill="#9E9E9E"/>
<path d="M18.487 357.169C20.8386 357.169 22.2157 355.25 22.2157 351.914C22.2157 348.603 20.8187 346.679 18.487 346.679C16.1504 346.679 14.7583 348.598 14.7534 351.914C14.7534 355.245 16.1305 357.164 18.487 357.169ZM18.487 355.842C17.1099 355.842 16.2797 354.46 16.2797 351.914C16.2846 349.379 17.1149 347.982 18.487 347.982C19.8542 347.982 20.6895 349.379 20.6895 351.914C20.6895 354.46 19.8592 355.842 18.487 355.842Z" fill="#9E9E9E"/>
<line x1="123.5" y1="326" x2="123.5" y2="334" stroke="#9E9E9E"/>
<line x1="31" y1="59.5" x2="39" y2="59.5" stroke="#9E9E9E"/>
<path d="M119.885 346.818H118.389L115.848 348.479V349.95L118.284 348.359H118.344V357H119.885V346.818ZM122.779 357H124.315V353.833L125.518 352.451L128.809 357H130.659L126.537 351.402L130.644 346.818H128.71L124.439 351.68H124.315V346.818H122.779V357Z" fill="#9E9E9E"/>
<line x1="207.5" y1="326" x2="207.5" y2="334" stroke="#9E9E9E"/>
<path d="M198.867 346.818H197.37L194.83 348.479V349.95L197.266 348.359H197.326V357H198.867V346.818ZM205.166 357.169C207.517 357.169 208.894 355.25 208.894 351.914C208.894 348.603 207.497 346.679 205.166 346.679C202.829 346.679 201.437 348.598 201.432 351.914C201.432 355.245 202.809 357.164 205.166 357.169ZM205.166 355.842C203.789 355.842 202.958 354.46 202.958 351.914C202.963 349.379 203.794 347.982 205.166 347.982C206.533 347.982 207.368 349.379 207.368 351.914C207.368 354.46 206.538 355.842 205.166 355.842ZM210.797 357H212.334V353.833L213.537 352.451L216.828 357H218.677L214.556 351.402L218.662 346.818H216.728L212.458 351.68H212.334V346.818H210.797V357Z" fill="#9E9E9E"/>
<line x1="291.5" y1="326" x2="291.5" y2="334" stroke="#9E9E9E"/>
<path d="M278.848 346.818H277.352L274.811 348.479V349.95L277.247 348.359H277.307V357H278.848V346.818ZM285.147 357.169C287.499 357.169 288.876 355.25 288.876 351.914C288.876 348.603 287.479 346.679 285.147 346.679C282.811 346.679 281.419 348.598 281.414 351.914C281.414 355.245 282.791 357.164 285.147 357.169ZM285.147 355.842C283.77 355.842 282.94 354.46 282.94 351.914C282.945 349.379 283.775 347.982 285.147 347.982C286.514 347.982 287.35 349.379 287.35 351.914C287.35 354.46 286.519 355.842 285.147 355.842ZM294.184 357.169C296.536 357.169 297.913 355.25 297.913 351.914C297.913 348.603 296.516 346.679 294.184 346.679C291.848 346.679 290.456 348.598 290.451 351.914C290.451 355.245 291.828 357.164 294.184 357.169ZM294.184 355.842C292.807 355.842 291.977 354.46 291.977 351.914C291.982 349.379 292.812 347.982 294.184 347.982C295.551 347.982 296.387 349.379 296.387 351.914C296.387 354.46 295.556 355.842 294.184 355.842ZM299.816 357H301.352V353.833L302.555 352.451L305.846 357H307.696L303.574 351.402L307.681 346.818H305.747L301.476 351.68H301.352V346.818H299.816V357Z" fill="#9E9E9E"/>
<line x1="375.5" y1="326" x2="375.5" y2="334" stroke="#9E9E9E"/>
<path d="M370.252 346.818H368.755L366.215 348.479V349.95L368.651 348.359H368.71V357H370.252V346.818ZM373.145 346.818V357H374.607V349.627H374.701L377.704 356.985H378.917L381.92 349.632H382.014V357H383.476V346.818H381.612L378.37 354.733H378.251L375.009 346.818H373.145Z" fill="#9E9E9E"/>
<line x1="459.5" y1="326" x2="459.5" y2="334" stroke="#9E9E9E"/>
<path d="M449.233 346.818H447.737L445.196 348.479V349.95L447.632 348.359H447.692V357H449.233V346.818ZM455.532 357.169C457.884 357.169 459.261 355.25 459.261 351.914C459.261 348.603 457.864 346.679 455.532 346.679C453.195 346.679 451.803 348.598 451.798 351.914C451.798 355.245 453.175 357.164 455.532 357.169ZM455.532 355.842C454.155 355.842 453.325 354.46 453.325 351.914C453.33 349.379 454.16 347.982 455.532 347.982C456.899 347.982 457.734 349.379 457.734 351.914C457.734 354.46 456.904 355.842 455.532 355.842ZM461.164 346.818V357H462.625V349.627H462.72L465.722 356.985H466.936L469.938 349.632H470.033V357H471.494V346.818H469.63L466.389 354.733H466.269L463.028 346.818H461.164Z" fill="#9E9E9E"/>
<line x1="543.5" y1="326" x2="543.5" y2="334" stroke="#9E9E9E"/>
<path d="M529.214 346.818H527.718L525.177 348.479V349.95L527.614 348.359H527.673V357H529.214V346.818ZM535.513 357.169C537.865 357.169 539.242 355.25 539.242 351.914C539.242 348.603 537.845 346.679 535.513 346.679C533.177 346.679 531.785 348.598 531.78 351.914C531.78 355.245 533.157 357.164 535.513 357.169ZM535.513 355.842C534.136 355.842 533.306 354.46 533.306 351.914C533.311 349.379 534.141 347.982 535.513 347.982C536.881 347.982 537.716 349.379 537.716 351.914C537.716 354.46 536.886 355.842 535.513 355.842ZM544.551 357.169C546.902 357.169 548.279 355.25 548.279 351.914C548.279 348.603 546.882 346.679 544.551 346.679C542.214 346.679 540.822 348.598 540.817 351.914C540.817 355.245 542.194 357.164 544.551 357.169ZM544.551 355.842C543.173 355.842 542.343 354.46 542.343 351.914C542.348 349.379 543.178 347.982 544.551 347.982C545.918 347.982 546.753 349.379 546.753 351.914C546.753 354.46 545.923 355.842 544.551 355.842ZM550.182 346.818V357H551.644V349.627H551.738L554.741 356.985H555.954L558.957 349.632H559.051V357H560.513V346.818H558.649L555.407 354.733H555.288L552.046 346.818H550.182Z" fill="#9E9E9E"/>
<line x1="627.5" y1="326" x2="627.5" y2="334" stroke="#9E9E9E"/>
<path d="M623.954 346.818H622.457L619.917 348.479V349.95L622.353 348.359H622.412V357H623.954V346.818ZM626.847 357H630.75C633.116 357 634.185 355.822 634.185 354.261C634.185 352.685 633.081 351.795 632.072 351.74V351.641C633.007 351.402 633.787 350.766 633.787 349.493C633.787 347.987 632.743 346.818 630.576 346.818H626.847V357ZM628.383 355.683V352.421H630.655C631.888 352.421 632.659 353.217 632.659 354.186C632.659 355.041 632.077 355.683 630.601 355.683H628.383ZM628.383 351.223V348.126H630.481C631.699 348.126 632.281 348.767 632.281 349.612C632.281 350.597 631.476 351.223 630.442 351.223H628.383Z" fill="#9E9E9E"/>
<path d="M39 326L38.5 326L38.5 326.5L39 326.5L39 326ZM692 326L687 323.113L687 328.887L692 326ZM39 0L36.1132 5L41.8868 5L39 0ZM39 326.5L687.5 326.5L687.5 325.5L39 325.5L39 326.5ZM39.5 326L39.5 4.5L38.5 4.5L38.5 326L39.5 326Z" fill="#9E9E9E"/>
<g filter="url(#filter0_d)">
<circle cx="39" cy="295" r="11" fill="white"/>
</g>
<circle cx="39" cy="295" r="4" fill="#30DFC4"/>
<path d="M63.8175 300.224C66.3778 300.224 67.924 298.275 67.929 294.919C67.9339 291.588 66.3679 289.679 63.8175 289.679C61.2621 289.679 59.7109 291.583 59.706 294.919C59.696 298.265 61.2521 300.219 63.8175 300.224ZM63.8175 298.439C62.6491 298.439 61.8935 297.266 61.8984 294.919C61.9034 292.607 62.6541 291.444 63.8175 291.444C64.9759 291.444 65.7315 292.607 65.7315 294.919C65.7365 297.266 64.9808 298.439 63.8175 298.439ZM70.2979 300.129C70.9343 300.129 71.4862 299.597 71.4911 298.936C71.4862 298.285 70.9343 297.753 70.2979 297.753C69.6417 297.753 69.0998 298.285 69.1048 298.936C69.0998 299.597 69.6417 300.129 70.2979 300.129ZM76.7784 300.224C79.3388 300.224 80.8849 298.275 80.8899 294.919C80.8949 291.588 79.3288 289.679 76.7784 289.679C74.223 289.679 72.6719 291.583 72.6669 294.919C72.657 298.265 74.2131 300.219 76.7784 300.224ZM76.7784 298.439C75.6101 298.439 74.8544 297.266 74.8594 294.919C74.8643 292.607 75.6151 291.444 76.7784 291.444C77.9368 291.444 78.6925 292.607 78.6925 294.919C78.6974 297.266 77.9418 298.439 76.7784 298.439ZM86.8546 289.818H84.8311L82.3105 291.414V293.323L84.6422 291.862H84.7019V300H86.8546V289.818ZM93.2667 300.224C95.8271 300.224 97.3732 298.275 97.3782 294.919C97.3832 291.588 95.8171 289.679 93.2667 289.679C90.7113 289.679 89.1602 291.583 89.1552 294.919C89.1452 298.265 90.7013 300.219 93.2667 300.224ZM93.2667 298.439C92.0984 298.439 91.3427 297.266 91.3477 294.919C91.3526 292.607 92.1033 291.444 93.2667 291.444C94.4251 291.444 95.1808 292.607 95.1808 294.919C95.1857 297.266 94.43 298.439 93.2667 298.439ZM108.502 289.818V296.246C108.502 297.41 107.687 298.25 106.434 298.25C105.186 298.25 104.366 297.41 104.366 296.246V289.818H102.213V296.43C102.213 298.658 103.893 300.144 106.434 300.144C108.964 300.144 110.655 298.658 110.655 296.43V289.818H108.502ZM117.949 292.746H120.013C119.983 290.932 118.491 289.679 116.224 289.679C113.992 289.679 112.356 290.912 112.366 292.761C112.361 294.263 113.42 295.123 115.14 295.536L116.249 295.814C117.358 296.082 117.974 296.401 117.979 297.087C117.974 297.832 117.268 298.339 116.175 298.339C115.056 298.339 114.251 297.822 114.181 296.803H112.098C112.153 299.006 113.729 300.144 116.199 300.144C118.685 300.144 120.147 298.956 120.152 297.092C120.147 295.396 118.869 294.496 117.099 294.099L116.184 293.88C115.3 293.676 114.559 293.348 114.574 292.617C114.574 291.961 115.155 291.479 116.209 291.479C117.238 291.479 117.87 291.946 117.949 292.746ZM125.209 300C128.311 300 130.191 298.081 130.191 294.899C130.191 291.727 128.311 289.818 125.239 289.818H121.6V300H125.209ZM123.752 298.156V291.663H125.125C127.034 291.663 128.043 292.637 128.043 294.899C128.043 297.171 127.034 298.156 125.12 298.156H123.752Z" fill="#3CDECA"/>
<path d="M549.798 300.818H548.276V308.295H548.182L543.001 300.818H541.58V311H543.116V303.533H543.21L548.386 311H549.798V300.818ZM556.757 307.833C556.762 309.131 555.797 309.747 554.962 309.747C554.042 309.747 553.406 309.081 553.406 308.042V303.364H551.919V308.221C551.919 310.115 552.958 311.099 554.425 311.099C555.573 311.099 556.354 310.493 556.707 309.678H556.786V311H558.248V303.364H556.757V307.833ZM560.245 311H561.732V306.292C561.732 305.263 562.453 304.547 563.298 304.547C564.123 304.547 564.695 305.094 564.695 305.924V311H566.176V306.133C566.176 305.213 566.738 304.547 567.708 304.547C568.493 304.547 569.14 304.984 569.14 306.018V311H570.626V305.879C570.626 304.134 569.652 303.264 568.27 303.264C567.171 303.264 566.346 303.791 565.978 304.607H565.898C565.565 303.771 564.864 303.264 563.845 303.264C562.836 303.264 562.085 303.766 561.767 304.607H561.672V303.364H560.245V311ZM572.738 311H574.189V309.812H574.314C574.582 310.299 575.129 311.149 576.521 311.149C578.371 311.149 579.713 309.668 579.713 307.197C579.713 304.721 578.351 303.264 576.506 303.264C575.089 303.264 574.577 304.129 574.314 304.602H574.224V300.818H572.738V311ZM574.194 307.182C574.194 305.586 574.89 304.527 576.188 304.527C577.535 304.527 578.211 305.665 578.211 307.182C578.211 308.713 577.515 309.881 576.188 309.881C574.91 309.881 574.194 308.788 574.194 307.182ZM584.673 311.154C586.339 311.154 587.517 310.334 587.855 309.091L586.448 308.837C586.18 309.558 585.533 309.926 584.688 309.926C583.415 309.926 582.56 309.101 582.521 307.629H587.95V307.102C587.95 304.343 586.299 303.264 584.569 303.264C582.441 303.264 581.039 304.885 581.039 307.232C581.039 309.603 582.421 311.154 584.673 311.154ZM582.526 306.516C582.585 305.432 583.371 304.492 584.579 304.492C585.732 304.492 586.488 305.347 586.493 306.516H582.526ZM589.599 311H591.085V306.337C591.085 305.337 591.856 304.616 592.91 304.616C593.218 304.616 593.566 304.671 593.686 304.706V303.284C593.536 303.264 593.243 303.249 593.054 303.249C592.159 303.249 591.394 303.756 591.115 304.577H591.036V303.364H589.599V311ZM601.894 311.154C604.046 311.154 605.453 309.578 605.453 307.217C605.453 304.84 604.046 303.264 601.894 303.264C599.741 303.264 598.334 304.84 598.334 307.217C598.334 309.578 599.741 311.154 601.894 311.154ZM601.899 309.906C600.492 309.906 599.835 308.678 599.835 307.212C599.835 305.75 600.492 304.507 601.899 304.507C603.296 304.507 603.952 305.75 603.952 307.212C603.952 308.678 603.296 309.906 601.899 309.906ZM610.747 303.364H609.101V302.678C609.101 302.001 609.38 301.634 610.105 301.634C610.414 301.634 610.632 301.703 610.772 301.748L611.12 300.545C610.911 300.465 610.478 300.341 609.877 300.341C608.669 300.341 607.61 301.047 607.61 302.479V303.364H606.431V304.557H607.61V311H609.101V304.557H610.747V303.364ZM616.105 300.818V311H617.567V303.627H617.661L620.664 310.985H621.877L624.88 303.632H624.974V311H626.436V300.818H624.572L621.33 308.733H621.211L617.969 300.818H616.105ZM631.841 311.154C633.507 311.154 634.685 310.334 635.023 309.091L633.616 308.837C633.348 309.558 632.701 309.926 631.856 309.926C630.583 309.926 629.728 309.101 629.689 307.629H635.118V307.102C635.118 304.343 633.467 303.264 631.737 303.264C629.609 303.264 628.207 304.885 628.207 307.232C628.207 309.603 629.589 311.154 631.841 311.154ZM629.694 306.516C629.753 305.432 630.539 304.492 631.747 304.492C632.9 304.492 633.656 305.347 633.661 306.516H629.694ZM636.767 311H638.253V306.292C638.253 305.263 638.974 304.547 639.819 304.547C640.645 304.547 641.216 305.094 641.216 305.924V311H642.698V306.133C642.698 305.213 643.26 304.547 644.229 304.547C645.015 304.547 645.661 304.984 645.661 306.018V311H647.148V305.879C647.148 304.134 646.173 303.264 644.791 303.264C643.692 303.264 642.867 303.791 642.499 304.607H642.42C642.086 303.771 641.385 303.264 640.366 303.264C639.357 303.264 638.606 303.766 638.288 304.607H638.194V303.364H636.767V311ZM649.259 311H650.711V309.812H650.835C651.104 310.299 651.651 311.149 653.043 311.149C654.892 311.149 656.234 309.668 656.234 307.197C656.234 304.721 654.872 303.264 653.028 303.264C651.611 303.264 651.099 304.129 650.835 304.602H650.746V300.818H649.259V311ZM650.716 307.182C650.716 305.586 651.412 304.527 652.71 304.527C654.057 304.527 654.733 305.665 654.733 307.182C654.733 308.713 654.037 309.881 652.71 309.881C651.432 309.881 650.716 308.788 650.716 307.182ZM661.195 311.154C662.86 311.154 664.039 310.334 664.377 309.091L662.97 308.837C662.701 309.558 662.055 309.926 661.21 309.926C659.937 309.926 659.082 309.101 659.042 307.629H664.471V307.102C664.471 304.343 662.82 303.264 661.09 303.264C658.963 303.264 657.561 304.885 657.561 307.232C657.561 309.603 658.943 311.154 661.195 311.154ZM659.047 306.516C659.107 305.432 659.892 304.492 661.1 304.492C662.254 304.492 663.009 305.347 663.014 306.516H659.047ZM666.12 311H667.607V306.337C667.607 305.337 668.377 304.616 669.431 304.616C669.74 304.616 670.088 304.671 670.207 304.706V303.284C670.058 303.264 669.765 303.249 669.576 303.249C668.681 303.249 667.915 303.756 667.637 304.577H667.557V303.364H666.12V311ZM677.216 305.228C676.907 304.04 675.978 303.264 674.327 303.264C672.602 303.264 671.379 304.174 671.379 305.526C671.379 306.61 672.035 307.331 673.467 307.649L674.76 307.933C675.496 308.097 675.839 308.425 675.839 308.902C675.839 309.494 675.207 309.956 674.233 309.956C673.343 309.956 672.771 309.573 672.592 308.822L671.155 309.041C671.404 310.393 672.528 311.154 674.243 311.154C676.087 311.154 677.365 310.175 677.365 308.793C677.365 307.714 676.679 307.048 675.277 306.724L674.064 306.446C673.224 306.247 672.861 305.964 672.866 305.447C672.861 304.86 673.497 304.442 674.342 304.442C675.267 304.442 675.694 304.955 675.868 305.467L677.216 305.228Z" fill="#9E9E9E"/>
<path d="M54.1186 25H55.6548V21.4205H57.7429C60.1044 21.4205 61.2727 19.9936 61.2727 18.1143C61.2727 16.2401 60.1143 14.8182 57.7479 14.8182H54.1186V25ZM55.6548 20.1179V16.1357H57.5838C59.1051 16.1357 59.7266 16.9609 59.7266 18.1143C59.7266 19.2678 59.1051 20.1179 57.6037 20.1179H55.6548ZM62.9544 25H64.4409V20.3366C64.4409 19.3374 65.2115 18.6165 66.2654 18.6165C66.5737 18.6165 66.9217 18.6712 67.041 18.706V17.2841C66.8919 17.2642 66.5985 17.2493 66.4096 17.2493C65.5147 17.2493 64.7491 17.7564 64.4707 18.5767H64.3912V17.3636H62.9544V25ZM68.3274 25H69.8139V17.3636H68.3274V25ZM69.0781 16.1854C69.5902 16.1854 70.0178 15.7876 70.0178 15.3004C70.0178 14.8132 69.5902 14.4105 69.0781 14.4105C68.5611 14.4105 68.1385 14.8132 68.1385 15.3004C68.1385 15.7876 68.5611 16.1854 69.0781 16.1854ZM75.0304 25.1541C76.835 25.1541 78.0034 24.0703 78.1674 22.5838H76.7207C76.5318 23.4091 75.8904 23.8963 75.0403 23.8963C73.7825 23.8963 72.9721 22.8473 72.9721 21.1818C72.9721 19.5462 73.7974 18.517 75.0403 18.517C75.9849 18.517 76.5616 19.1136 76.7207 19.8295H78.1674C78.0083 18.2884 76.7505 17.2642 75.0154 17.2642C72.8627 17.2642 71.4707 18.8849 71.4707 21.2166C71.4707 23.5185 72.813 25.1541 75.0304 25.1541ZM83.0483 25.1541C84.7138 25.1541 85.892 24.3338 86.2301 23.0909L84.8232 22.8374C84.5547 23.5582 83.9084 23.9261 83.0632 23.9261C81.7905 23.9261 80.9354 23.1009 80.8956 21.6293H86.3246V21.1023C86.3246 18.343 84.674 17.2642 82.9439 17.2642C80.8161 17.2642 79.4141 18.8849 79.4141 21.2315C79.4141 23.603 80.7962 25.1541 83.0483 25.1541ZM80.9006 20.5156C80.9602 19.4318 81.7457 18.4922 82.9538 18.4922C84.1072 18.4922 84.8629 19.3473 84.8679 20.5156H80.9006ZM94.8956 25.1541C97.0483 25.1541 98.4553 23.5781 98.4553 21.2166C98.4553 18.8402 97.0483 17.2642 94.8956 17.2642C92.7429 17.2642 91.3359 18.8402 91.3359 21.2166C91.3359 23.5781 92.7429 25.1541 94.8956 25.1541ZM94.9006 23.9062C93.4936 23.9062 92.8374 22.6783 92.8374 21.2116C92.8374 19.75 93.4936 18.5071 94.9006 18.5071C96.2976 18.5071 96.9538 19.75 96.9538 21.2116C96.9538 22.6783 96.2976 23.9062 94.9006 23.9062ZM103.749 17.3636H102.103V16.6776C102.103 16.0014 102.382 15.6335 103.107 15.6335C103.416 15.6335 103.634 15.7031 103.774 15.7479L104.122 14.5447C103.913 14.4652 103.48 14.3409 102.879 14.3409C101.671 14.3409 100.612 15.0469 100.612 16.4787V17.3636H99.4334V18.5568H100.612V25H102.103V18.5568H103.749V17.3636ZM110.951 20.5852C110.956 19.6009 111.558 19.0241 112.423 19.0241C113.283 19.0241 113.79 19.576 113.785 20.5156V25H115.903V20.1378C115.908 18.348 114.854 17.2642 113.263 17.2642C112.105 17.2642 111.329 17.8111 110.981 18.7109H110.892V14.8182H108.833V25H110.951V20.5852ZM117.57 25H119.688V17.3636H117.57V25ZM118.634 16.3793C119.265 16.3793 119.782 15.897 119.782 15.3054C119.782 14.7188 119.265 14.2365 118.634 14.2365C118.007 14.2365 117.49 14.7188 117.49 15.3054C117.49 15.897 118.007 16.3793 118.634 16.3793ZM128.659 25C131.761 25 133.556 23.076 133.556 19.8942C133.556 16.7273 131.761 14.8182 128.763 14.8182H125.363V25H128.659ZM126.899 23.6577V16.1605H128.669C130.896 16.1605 132.045 17.4929 132.045 19.8942C132.045 22.3054 130.896 23.6577 128.574 23.6577H126.899ZM138.564 25.1541C140.716 25.1541 142.123 23.5781 142.123 21.2166C142.123 18.8402 140.716 17.2642 138.564 17.2642C136.411 17.2642 135.004 18.8402 135.004 21.2166C135.004 23.5781 136.411 25.1541 138.564 25.1541ZM138.569 23.9062C137.162 23.9062 136.505 22.6783 136.505 21.2116C136.505 19.75 137.162 18.5071 138.569 18.5071C139.966 18.5071 140.622 19.75 140.622 21.2116C140.622 22.6783 139.966 23.9062 138.569 23.9062ZM145.269 14.8182H143.782V25H145.269V14.8182ZM148.755 14.8182H147.269V25H148.755V14.8182ZM152.977 25.169C154.24 25.169 154.951 24.5277 155.235 23.956H155.294V25H156.746V19.929C156.746 17.7067 154.996 17.2642 153.783 17.2642C152.401 17.2642 151.128 17.821 150.631 19.2131L152.028 19.5312C152.247 18.9893 152.803 18.4673 153.803 18.4673C154.762 18.4673 155.254 18.9695 155.254 19.8345V19.8693C155.254 20.4112 154.698 20.4013 153.325 20.5604C151.879 20.7294 150.397 21.1072 150.397 22.8423C150.397 24.3438 151.526 25.169 152.977 25.169ZM153.301 23.9759C152.46 23.9759 151.854 23.598 151.854 22.8622C151.854 22.0668 152.56 21.7834 153.42 21.669C153.902 21.6044 155.046 21.4751 155.259 21.2614V22.2457C155.259 23.1506 154.539 23.9759 153.301 23.9759ZM158.726 25H160.212V20.3366C160.212 19.3374 160.983 18.6165 162.037 18.6165C162.345 18.6165 162.693 18.6712 162.812 18.706V17.2841C162.663 17.2642 162.37 17.2493 162.181 17.2493C161.286 17.2493 160.521 17.7564 160.242 18.5767H160.163V17.3636H158.726V25ZM169.821 19.228C169.513 18.0398 168.583 17.2642 166.933 17.2642C165.208 17.2642 163.985 18.174 163.985 19.5263C163.985 20.6101 164.641 21.331 166.073 21.6491L167.365 21.9325C168.101 22.0966 168.444 22.4247 168.444 22.902C168.444 23.4936 167.813 23.956 166.838 23.956C165.948 23.956 165.377 23.5732 165.198 22.8224L163.761 23.0412C164.009 24.3935 165.133 25.1541 166.848 25.1541C168.693 25.1541 169.97 24.1747 169.97 22.7926C169.97 21.7138 169.284 21.0476 167.882 20.7244L166.669 20.446C165.829 20.2472 165.466 19.9638 165.471 19.4467C165.466 18.8601 166.102 18.4425 166.948 18.4425C167.872 18.4425 168.3 18.9545 168.474 19.4666L169.821 19.228Z" fill="#9E9E9E"/>
<defs>
<filter id="filter0_d" x="0" y="256" width="82" height="82" filterUnits="userSpaceOnUse" color-interpolation-filters="sRGB">
<feFlood flood-opacity="0" result="BackgroundImageFix"/>
<feColorMatrix in="SourceAlpha" type="matrix" values="0 0 0 0 0 0 0 0 0 0 0 0 0 0 0 0 0 0 127 0"/>
<feOffset dx="2" dy="2"/>
<feGaussianBlur stdDeviation="15"/>
<feColorMatrix type="matrix" values="0 0 0 0 0.7875 0 0 0 0 0.76857 0 0 0 0 0.705469 0 0 0 0.5 0"/>
<feBlend mode="normal" in2="BackgroundImageFix" result="effect1_dropShadow"/>
<feBlend mode="normal" in="SourceGraphic" in2="effect1_dropShadow" result="shape"/>
</filter>
<linearGradient id="paint0_linear" x1="53" y1="216.41" x2="621.654" y2="216.41" gradientUnits="userSpaceOnUse">
<stop stop-color="#30DFC4"/>
<stop offset="1" stop-color="#00E8FF"/>
</linearGradient>
</defs>
</svg>
