<svg width="24" height="24" viewBox="0 0 24 24" fill="none" xmlns="http://www.w3.org/2000/svg">
<rect width="24" height="24" fill="black"/>
<path d="M12.0015 5.85085C14.0058 5.85085 14.2431 5.85964 15.0314 5.8948C15.7639 5.92704 16.1595 6.05011 16.4232 6.15267C16.7719 6.28746 17.0239 6.45155 17.2847 6.71235C17.5484 6.97607 17.7096 7.22514 17.8444 7.57384C17.947 7.83757 18.07 8.23608 18.1023 8.96572C18.1374 9.75689 18.1462 9.99424 18.1462 11.9956C18.1462 13.9999 18.1374 14.2373 18.1023 15.0255C18.07 15.7581 17.947 16.1536 17.8444 16.4174C17.7096 16.7661 17.5455 17.0181 17.2847 17.2789C17.021 17.5426 16.7719 17.7038 16.4232 17.8385C16.1595 17.9411 15.761 18.0642 15.0314 18.0964C14.2402 18.1316 14.0028 18.1404 12.0015 18.1404C9.99717 18.1404 9.75982 18.1316 8.97158 18.0964C8.23901 18.0642 7.84343 17.9411 7.5797 17.8385C7.231 17.7038 6.979 17.5397 6.71821 17.2789C6.45448 17.0151 6.29332 16.7661 6.15853 16.4174C6.05597 16.1536 5.9329 15.7551 5.90066 15.0255C5.8655 14.2343 5.85671 13.997 5.85671 11.9956C5.85671 9.99131 5.8655 9.75396 5.90066 8.96572C5.9329 8.23315 6.05597 7.83757 6.15853 7.57384C6.29332 7.22514 6.45741 6.97314 6.71821 6.71235C6.98193 6.44862 7.231 6.28746 7.5797 6.15267C7.84343 6.05011 8.24194 5.92704 8.97158 5.8948C9.75982 5.85964 9.99717 5.85085 12.0015 5.85085ZM12.0015 4.5C9.96494 4.5 9.71 4.50879 8.91004 4.54395C8.11301 4.57912 7.56505 4.70805 7.09035 4.89265C6.59514 5.08605 6.17611 5.34098 5.76001 5.76001C5.34098 6.17611 5.08605 6.59514 4.89265 7.08742C4.70805 7.56505 4.57912 8.11008 4.54395 8.90711C4.50879 9.71 4.5 9.96493 4.5 12.0015C4.5 14.038 4.50879 14.2929 4.54395 15.0929C4.57912 15.8899 4.70805 16.4379 4.89265 16.9126C5.08605 17.4078 5.34098 17.8268 5.76001 18.2429C6.17611 18.659 6.59514 18.9169 7.08742 19.1073C7.56505 19.292 8.11008 19.4209 8.90711 19.456C9.70707 19.4912 9.962 19.5 11.9985 19.5C14.0351 19.5 14.29 19.4912 15.09 19.456C15.887 19.4209 16.4349 19.292 16.9097 19.1073C17.4019 18.9169 17.821 18.659 18.2371 18.2429C18.6532 17.8268 18.911 17.4078 19.1015 16.9155C19.2861 16.4379 19.415 15.8929 19.4502 15.0958C19.4854 14.2959 19.4941 14.0409 19.4941 12.0044C19.4941 9.96787 19.4854 9.71293 19.4502 8.91297C19.415 8.11594 19.2861 7.56798 19.1015 7.09328C18.9169 6.59514 18.6619 6.17611 18.2429 5.76001C17.8268 5.34391 17.4078 5.08605 16.9155 4.89559C16.4379 4.71098 15.8929 4.58205 15.0958 4.54688C14.2929 4.50879 14.038 4.5 12.0015 4.5Z" fill="white"/>
<path d="M12.0017 8.14819C9.87436 8.14819 8.14844 9.87412 8.14844 12.0015C8.14844 14.1289 9.87436 15.8548 12.0017 15.8548C14.1291 15.8548 15.855 14.1289 15.855 12.0015C15.855 9.87412 14.1291 8.14819 12.0017 8.14819ZM12.0017 14.501C10.6216 14.501 9.50222 13.3816 9.50222 12.0015C9.50222 10.6213 10.6216 9.50197 12.0017 9.50197C13.3819 9.50197 14.5012 10.6213 14.5012 12.0015C14.5012 13.3816 13.3819 14.501 12.0017 14.501Z" fill="white"/>
<path d="M16.9066 7.99578C16.9066 8.49393 16.5022 8.89537 16.007 8.89537C15.5089 8.89537 15.1074 8.491 15.1074 7.99578C15.1074 7.49764 15.5118 7.09619 16.007 7.09619C16.5022 7.09619 16.9066 7.50057 16.9066 7.99578Z" fill="white"/>
</svg>
