<svg width="71" height="71" viewBox="0 0 71 71" fill="none" xmlns="http://www.w3.org/2000/svg">
<path fill-rule="evenodd" clip-rule="evenodd" d="M57.7546 34.8442C57.7546 24.9163 47.8268 16.8625 35.6195 16.8625C23.4123 16.8625 13.4844 24.9163 13.4844 34.8442C13.4844 43.7084 21.3355 51.1543 31.9725 52.5725C32.6817 52.7245 33.6947 53.0284 33.8973 53.6869C34.0999 54.2441 34.0493 55.1052 33.948 55.713C33.948 55.713 33.6947 57.2832 33.6441 57.5871L33.6361 57.6303C33.5269 58.2227 33.2469 59.7414 35.5689 58.8028C37.9495 57.7897 48.3333 51.3062 52.9427 45.9371C56.2351 42.3914 57.7546 38.7951 57.7546 34.8442ZM31.1125 30.0829H29.5423C29.289 30.0829 29.0864 30.2856 29.0864 30.4882V40.1121C29.0864 40.3654 29.289 40.5174 29.5423 40.5174H31.1125C31.3658 40.5174 31.5684 40.3147 31.5684 40.1121V30.4882C31.5684 30.2856 31.3658 30.0829 31.1125 30.0829ZM40.28 30.0829H41.7995C42.0528 30.0829 42.2554 30.2856 42.2554 30.4882V40.1121C42.2554 40.3147 42.0528 40.5174 41.7995 40.5174H40.4319H40.3306H40.28H40.2293C40.198 40.5174 40.186 40.498 40.1695 40.4713C40.1593 40.4547 40.1473 40.4354 40.128 40.416L35.7212 34.4391V40.1628C35.7212 40.3654 35.5186 40.568 35.2654 40.568H33.6951C33.4419 40.568 33.2393 40.416 33.2393 40.1628V30.5388C33.2393 30.3362 33.4419 30.1336 33.6951 30.1336H35.2654H35.316L35.3667 30.1843C35.4173 30.1843 35.4173 30.2349 35.4173 30.2349L39.8241 36.2119V30.4882C39.8241 30.2856 40.0267 30.0829 40.28 30.0829ZM27.3643 38.1368H23.1602V30.4883C23.1602 30.235 22.9576 30.0324 22.7043 30.0324H21.1341C20.8808 30.0324 20.6782 30.235 20.6782 30.4883V40.1123C20.6782 40.2136 20.7289 40.3149 20.7795 40.4162C20.8808 40.4668 20.9821 40.5175 21.0834 40.5175H27.263C27.5163 40.5175 27.6683 40.3149 27.6683 40.0616V38.4914C27.8202 38.3394 27.6176 38.1368 27.3643 38.1368ZM50.7659 32.0078C50.7659 32.2611 50.614 32.4637 50.3607 32.4637H46.1565V34.0339H50.3607C50.5633 34.0339 50.7659 34.2365 50.7659 34.4898V36.06C50.7659 36.3132 50.614 36.5159 50.3607 36.5159H46.1565V37.9341H50.3607C50.5633 37.9341 50.7659 38.1367 50.7659 38.39V39.9602C50.7659 40.2135 50.614 40.4161 50.3607 40.4161H44.1811C44.0798 40.4161 43.9785 40.3654 43.8772 40.3148C43.8265 40.2135 43.7759 40.1122 43.7759 40.0109V30.3869C43.7759 30.2856 43.8265 30.1843 43.8772 30.083C43.9785 30.0323 44.0798 29.9817 44.1811 29.9817H50.3607C50.5633 29.9817 50.7659 30.1843 50.7659 30.4376V32.0078Z" fill="#E0E5E9"/>
</svg>
