<svg width="68" height="69" viewBox="0 0 68 69" fill="none" xmlns="http://www.w3.org/2000/svg">
<path fill-rule="evenodd" clip-rule="evenodd" d="M12.75 33.8625C12.75 22.0186 22.0292 13.25 34 13.25C45.9708 13.25 55.25 22.0186 55.25 33.8625C55.25 45.7064 45.9708 54.475 34 54.475C31.8498 54.475 29.787 54.1911 27.8488 53.6581C27.472 53.5544 27.0714 53.5838 26.7138 53.7414L22.496 55.6034C21.3927 56.0904 20.1473 55.3059 20.1103 54.1001L19.9945 50.3202C19.9803 49.8544 19.7708 49.4192 19.4237 49.1085C15.289 45.4109 12.75 40.0576 12.75 33.8625ZM27.4809 29.9871L21.2388 39.8905C20.6397 40.8409 21.808 41.9119 22.7029 41.2328L29.408 36.144C29.8616 35.7998 30.4884 35.7979 30.9438 36.1396L35.9087 39.8632C37.3984 40.9806 39.5247 40.5882 40.5177 39.0128L46.7599 29.1094C47.3588 28.159 46.1906 27.088 45.2957 27.7671L38.5906 32.8559C38.137 33.2001 37.5102 33.202 37.0547 32.8603L32.09 29.1367C30.6001 28.0194 28.4739 28.4116 27.4809 29.9871Z" fill="#E0E5E9"/>
</svg>
