<svg id="Layer_1" data-name="Layer 1" xmlns="http://www.w3.org/2000/svg" viewBox="0 0 672 110"><defs><style>.cls-1,.cls-2{fill:none;stroke:#000;stroke-width:2px;}.cls-2{stroke-miterlimit:10;}</style></defs><path class="cls-1" d="M66.52,10V82.71H53.24L21.6,36.94h-.53V82.71H5.69V10H19.18l31.4,45.74h.63V10Z"/><path class="cls-1" d="M103.56,83.78a27.73,27.73,0,0,1-14.3-3.54A23.83,23.83,0,0,1,80,70.37a31.65,31.65,0,0,1-3.27-14.72A31.86,31.86,0,0,1,80,40.86,24,24,0,0,1,89.26,31a27.73,27.73,0,0,1,14.3-3.53A27.69,27.69,0,0,1,117.85,31a24,24,0,0,1,9.29,9.87,31.86,31.86,0,0,1,3.26,14.79,31.65,31.65,0,0,1-3.26,14.72,23.85,23.85,0,0,1-9.29,9.87A27.69,27.69,0,0,1,103.56,83.78Zm.07-11.72a9.35,9.35,0,0,0,6.28-2.15A13.16,13.16,0,0,0,113.73,64a25.56,25.56,0,0,0,1.3-8.48,25.58,25.58,0,0,0-1.3-8.49,13.35,13.35,0,0,0-3.82-5.9A9.31,9.31,0,0,0,103.63,39a9.59,9.59,0,0,0-6.38,2.16,13.25,13.25,0,0,0-3.87,5.9,25.85,25.85,0,0,0-1.29,8.49A25.83,25.83,0,0,0,93.38,64a13.08,13.08,0,0,0,3.87,5.88A9.64,9.64,0,0,0,103.63,72.06Z"/><path class="cls-2" d="M167.9,70.78l-1.63.3a11.81,11.81,0,0,1-2.13.2,7.34,7.34,0,0,1-2.68-.46,3.48,3.48,0,0,1-1.79-1.62A6.73,6.73,0,0,1,159,66V39.53h10.26V28.17H159V15.1H143.9V28.17h-7.46V39.53h7.46V67.94a15.79,15.79,0,0,0,2.24,8.88A13.31,13.31,0,0,0,152.51,82a22.92,22.92,0,0,0,9.57,1.46,26.72,26.72,0,0,0,5-.59c1.37-.32,2.43-.6,3.19-.83Z"/><path class="cls-1" d="M211.48,46.85v12H178.31v-12Z"/><path class="cls-1" d="M242.83,24.51a6.45,6.45,0,0,1,1.32-4.32q1.31-1.55,4.65-1.54a13.58,13.58,0,0,1,2.64.25,17.69,17.69,0,0,1,2.19.53l2.7-11.36a41.27,41.27,0,0,0-4.32-1,34.84,34.84,0,0,0-6.37-.53,21,21,0,0,0-9.2,1.95,14.66,14.66,0,0,0-6.37,5.86,19,19,0,0,0-2.33,9.83v4H220V39.53h7.71V82.71h15.09V39.53H253.7V28.17H242.83Z"/><path class="cls-1" d="M285.66,83.78a27.67,27.67,0,0,1-14.29-3.54,23.79,23.79,0,0,1-9.29-9.87,31.65,31.65,0,0,1-3.27-14.72,31.86,31.86,0,0,1,3.27-14.79A23.91,23.91,0,0,1,271.37,31,30.69,30.69,0,0,1,300,31a23.91,23.91,0,0,1,9.29,9.87,31.86,31.86,0,0,1,3.27,14.79,31.65,31.65,0,0,1-3.27,14.72A23.79,23.79,0,0,1,300,80.24,27.67,27.67,0,0,1,285.66,83.78Zm.07-11.72A9.38,9.38,0,0,0,292,69.91,13.15,13.15,0,0,0,295.83,64a25.56,25.56,0,0,0,1.3-8.48,25.58,25.58,0,0,0-1.3-8.49,13.33,13.33,0,0,0-3.81-5.9A9.33,9.33,0,0,0,285.73,39a9.56,9.56,0,0,0-6.37,2.16,13.09,13.09,0,0,0-3.87,5.9,25.58,25.58,0,0,0-1.3,8.49,25.56,25.56,0,0,0,1.3,8.48,12.91,12.91,0,0,0,3.87,5.88A9.61,9.61,0,0,0,285.73,72.06Z"/><path class="cls-1" d="M322.38,82.71V28.17h14.67v9.51h.56a14.23,14.23,0,0,1,5-7.68,13.21,13.21,0,0,1,8.1-2.61,21.7,21.7,0,0,1,2.45.14,16.27,16.27,0,0,1,2.31.39V41.34a21.2,21.2,0,0,0-3-.57,27.58,27.58,0,0,0-3.45-.25A12.16,12.16,0,0,0,343.13,42,10.67,10.67,0,0,0,339,46a11.33,11.33,0,0,0-1.51,5.89V82.71Z"/><path class="cls-1" d="M395.64,46.85v12H362.47v-12Z"/><path class="cls-1" d="M408.53,103.17v-75h14.91v9.16h.68A19.94,19.94,0,0,1,427,32.84,15.32,15.32,0,0,1,432,29a17,17,0,0,1,7.66-1.54,20.58,20.58,0,0,1,11,3.1,21.8,21.8,0,0,1,8.07,9.34q3,6.24,3,15.61,0,9.12-2.92,15.39a22,22,0,0,1-8,9.49A20.45,20.45,0,0,1,439.6,83.6a17.33,17.33,0,0,1-7.47-1.46,15.27,15.27,0,0,1-5-3.67,18.22,18.22,0,0,1-3-4.49h-.46v29.19Zm14.81-47.73a24.32,24.32,0,0,0,1.35,8.49,12.55,12.55,0,0,0,3.9,5.63,9.82,9.82,0,0,0,6.22,2,9.72,9.72,0,0,0,6.25-2A12.68,12.68,0,0,0,445,63.84a24.6,24.6,0,0,0,1.33-8.4A24,24,0,0,0,445,47.13a12.3,12.3,0,0,0-3.87-5.61,9.8,9.8,0,0,0-6.28-2,10,10,0,0,0-6.24,2A12.2,12.2,0,0,0,424.69,47,24,24,0,0,0,423.34,55.44Z"/><path class="cls-1" d="M471.77,82.71V28.17h14.67v9.51H487A14.16,14.16,0,0,1,492,30a13.25,13.25,0,0,1,8.1-2.61,21.57,21.57,0,0,1,2.45.14,15.79,15.79,0,0,1,2.31.39V41.34a20.61,20.61,0,0,0-2.95-.57,27.43,27.43,0,0,0-3.44-.25,12.1,12.1,0,0,0-6,1.44,10.7,10.7,0,0,0-4.12,4,11.33,11.33,0,0,0-1.51,5.89V82.71Z"/><path class="cls-1" d="M534.73,83.78a27.69,27.69,0,0,1-14.29-3.54,23.85,23.85,0,0,1-9.29-9.87,31.77,31.77,0,0,1-3.26-14.72,32,32,0,0,1,3.26-14.79A24,24,0,0,1,520.44,31,30.71,30.71,0,0,1,549,31a24,24,0,0,1,9.28,9.87,31.86,31.86,0,0,1,3.27,14.79,31.65,31.65,0,0,1-3.27,14.72A23.83,23.83,0,0,1,549,80.24,27.73,27.73,0,0,1,534.73,83.78Zm.07-11.72a9.38,9.38,0,0,0,6.29-2.15A13.25,13.25,0,0,0,544.91,64a25.83,25.83,0,0,0,1.29-8.48,25.85,25.85,0,0,0-1.29-8.49,13.43,13.43,0,0,0-3.82-5.9A9.33,9.33,0,0,0,534.8,39a9.58,9.58,0,0,0-6.37,2.16,13.09,13.09,0,0,0-3.87,5.9,25.84,25.84,0,0,0-1.3,8.49,25.82,25.82,0,0,0,1.3,8.48,12.91,12.91,0,0,0,3.87,5.88A9.63,9.63,0,0,0,534.8,72.06Z"/><path class="cls-1" d="M589.92,24.51a6.5,6.5,0,0,1,1.31-4.32q1.32-1.55,4.65-1.54a13.68,13.68,0,0,1,2.65.25,17.94,17.94,0,0,1,2.18.53l2.7-11.36a41,41,0,0,0-4.31-1,35,35,0,0,0-6.38-.53,20.88,20.88,0,0,0-9.19,1.95,14.68,14.68,0,0,0-6.38,5.86,19,19,0,0,0-2.32,9.83v4h-7.71V39.53h7.71V82.71h15.09V39.53h10.86V28.17H589.92Z"/><path class="cls-1" d="M617.65,21.14a8.21,8.21,0,0,1-5.79-2.26,7.25,7.25,0,0,1,0-10.8,8.55,8.55,0,0,1,11.56,0,7.27,7.27,0,0,1,0,10.8A8.12,8.12,0,0,1,617.65,21.14ZM610,82.71V28.17h15.13V82.71Z"/><path class="cls-1" d="M664.85,70.78l-1.64.3a11.81,11.81,0,0,1-2.13.2,7.34,7.34,0,0,1-2.68-.46,3.48,3.48,0,0,1-1.79-1.62A6.73,6.73,0,0,1,656,66V39.53h10.26V28.17H656V15.1H640.84V28.17h-7.46V39.53h7.46V67.94a15.88,15.88,0,0,0,2.24,8.88A13.35,13.35,0,0,0,649.45,82,23,23,0,0,0,659,83.46a26.51,26.51,0,0,0,5-.59c1.37-.32,2.44-.6,3.19-.83Z"/></svg>