<svg width="25" height="24" viewBox="0 0 25 24" fill="none" xmlns="http://www.w3.org/2000/svg">
<path d="M21 11.9268C21 10.8933 20.1557 10.0532 19.118 10.0532C18.6115 10.0532 18.1525 10.2558 17.8146 10.5817C16.5325 9.73804 14.7978 9.20113 12.8768 9.13242L13.9273 5.82521L16.772 6.49175L16.7677 6.53283C16.7677 7.37787 17.4583 8.06496 18.3076 8.06496C19.1562 8.06496 19.8461 7.37787 19.8461 6.53283C19.8461 5.68779 19.1555 5 18.3076 5C17.656 5 17.1006 5.40658 16.8761 5.97679L13.8097 5.25783C13.6758 5.22525 13.5398 5.30246 13.498 5.43421L12.3265 9.1225C10.3162 9.14658 8.49508 9.68775 7.15562 10.5569C6.81987 10.2466 6.37433 10.0525 5.88133 10.0525C4.84362 10.0525 4 10.8933 4 11.9268C4 12.6139 4.37754 13.2096 4.93287 13.5354C4.89604 13.7352 4.87196 13.937 4.87196 14.1425C4.87196 16.9127 8.27763 19.1667 12.4646 19.1667C16.6515 19.1667 20.0579 16.9127 20.0579 14.1425C20.0579 13.9484 20.0374 13.7571 20.0048 13.5687C20.5941 13.2521 21 12.6394 21 11.9268ZM8.79967 13.2131C8.79967 12.5983 9.30258 12.0975 9.92025 12.0975C10.5379 12.0975 11.0401 12.5983 11.0401 13.2131C11.0401 13.828 10.5379 14.328 9.92025 14.328C9.30258 14.328 8.79967 13.828 8.79967 13.2131ZM15.2179 16.5203C14.6533 17.082 13.7672 17.3555 12.5092 17.3555L12.5 17.3533L12.4908 17.3555C11.2321 17.3555 10.346 17.082 9.78212 16.5203C9.67942 16.4183 9.67942 16.2519 9.78212 16.1499C9.88483 16.0472 10.052 16.0472 10.1547 16.1499C10.6151 16.6082 11.3794 16.8306 12.4908 16.8306L12.5 16.8327L12.5092 16.8306C13.6206 16.8306 14.3849 16.6075 14.8453 16.1492C14.948 16.0465 15.1152 16.0472 15.2179 16.1492C15.3206 16.2519 15.3206 16.4176 15.2179 16.5203ZM15.084 14.328C14.4663 14.328 13.9641 13.828 13.9641 13.2131C13.9641 12.5983 14.4663 12.0975 15.084 12.0975C15.7017 12.0975 16.2039 12.5983 16.2039 13.2131C16.2039 13.828 15.7017 14.328 15.084 14.328Z" fill="white"/>
</svg>
