<svg width="31" height="30" viewBox="0 0 31 30" fill="none" xmlns="http://www.w3.org/2000/svg">
<g clip-path="url(#clip0)">
<path fill-rule="evenodd" clip-rule="evenodd" d="M23.4795 26.2239C23.882 26.5089 24.4008 26.5802 24.8633 26.4052C25.3258 26.229 25.6658 25.834 25.7683 25.3552C26.8545 20.2502 29.4895 7.32894 30.4783 2.68519C30.5533 2.33519 30.4283 1.97144 30.1533 1.73769C29.8783 1.50394 29.497 1.43644 29.157 1.56269C23.9158 3.50269 7.77452 9.55894 1.17702 12.0002C0.758271 12.1552 0.485771 12.5577 0.499521 12.9989C0.514521 13.4414 0.812021 13.8252 1.24077 13.9539C4.19952 14.8389 8.08327 16.0702 8.08327 16.0702C8.08327 16.0702 9.89827 21.5514 10.8445 24.3389C10.9633 24.6889 11.237 24.9639 11.5983 25.059C11.9583 25.1527 12.3433 25.0539 12.612 24.8002C14.132 23.3652 16.482 21.1464 16.482 21.1464C16.482 21.1464 20.947 24.4202 23.4795 26.2239ZM9.71702 15.3777L11.8158 22.3002L12.282 17.9164C12.282 17.9164 20.3908 10.6027 25.0133 6.43394C25.1483 6.31144 25.167 6.10644 25.0545 5.96269C24.9433 5.81894 24.7383 5.78519 24.5845 5.88269C19.227 9.30394 9.71702 15.3777 9.71702 15.3777Z" fill="#9E9E9E"/>
</g>
<defs>
<clipPath id="clip0">
<rect width="30" height="30" fill="white" transform="translate(0.5)"/>
</clipPath>
</defs>
</svg>
