<svg width="31" height="30" viewBox="0 0 31 30" fill="none" xmlns="http://www.w3.org/2000/svg">
<g clip-path="url(#clip0)">
<rect width="30" height="30" transform="translate(0.5)" fill="white"/>
<path fill-rule="evenodd" clip-rule="evenodd" d="M30.5 12.1726C30.5 5.46061 23.7713 0 15.4999 0C7.22958 0 0.5 5.46061 0.5 12.1726C0.5 18.19 5.83639 23.2293 13.0447 24.1823C13.5333 24.2875 14.1981 24.5043 14.3663 24.9218C14.5176 25.3011 14.4652 25.8952 14.4146 26.2782C14.4146 26.2782 14.2387 27.3367 14.2007 27.5621L14.1949 27.5955C14.1237 28.0016 13.944 29.0265 15.4999 28.3707C17.1009 27.6961 24.1385 23.2842 27.2855 19.6619H27.2849C29.4588 17.2781 30.5 14.859 30.5 12.1726ZM12.4523 8.92914H11.4001C11.2388 8.92914 11.1077 9.05998 11.1077 9.22072V15.7568C11.1077 15.9178 11.2388 16.0484 11.4001 16.0484H12.4523C12.6136 16.0484 12.7444 15.9178 12.7444 15.7568V9.22072C12.7444 9.05998 12.6136 8.92914 12.4523 8.92914ZM18.6421 8.92914H19.6942C19.8558 8.92914 19.9864 9.05998 19.9864 9.22072V15.7568C19.9864 15.9178 19.8558 16.0484 19.6942 16.0484H18.6421C18.6162 16.0484 18.5912 16.0446 18.5673 16.0383L18.5659 16.0379C18.5656 16.0379 18.5653 16.0378 18.5651 16.0377C18.5644 16.0376 18.5637 16.0374 18.563 16.0374L18.5508 16.0335L18.5432 16.0308L18.539 16.0294L18.5345 16.0276L18.5258 16.024L18.5202 16.0216C18.5156 16.0196 18.5107 16.0173 18.5064 16.0147L18.5042 16.0137C18.5021 16.0127 18.5002 16.0117 18.498 16.0104L18.4884 16.0047L18.4799 15.9995L18.4786 15.9983L18.477 15.9972C18.4491 15.9782 18.4235 15.9543 18.4028 15.925L15.404 11.8748V15.7568C15.404 15.9178 15.2731 16.0484 15.1115 16.0484H14.0597C13.8983 16.0484 13.7672 15.9178 13.7672 15.7568V9.22072C13.7672 9.05998 13.8983 8.92914 14.0597 8.92914H15.1115C15.1134 8.92914 15.115 8.92929 15.1167 8.92943C15.1183 8.92957 15.12 8.92972 15.1219 8.92972L15.1268 8.92994L15.1335 8.93027L15.1368 8.93058L15.1407 8.93098C15.1446 8.93135 15.1485 8.93173 15.1524 8.93259C15.1564 8.93288 15.1607 8.93346 15.1647 8.93403C15.1702 8.93518 15.1756 8.93662 15.1814 8.93777L15.1862 8.93913C15.1872 8.93937 15.1881 8.93961 15.189 8.93987C15.1898 8.9401 15.1907 8.94036 15.1915 8.94065C15.1975 8.94208 15.2032 8.94409 15.209 8.9461L15.209 8.94611L15.2185 8.94956C15.2196 8.94993 15.2206 8.95033 15.2217 8.95074C15.2241 8.9517 15.2266 8.95275 15.229 8.95384L15.2352 8.95675C15.2371 8.95747 15.239 8.95841 15.2409 8.95937L15.2444 8.96106C15.2495 8.96365 15.2547 8.96681 15.2599 8.96998C15.2616 8.97074 15.2632 8.97159 15.2647 8.97252L15.2688 8.97515L15.2743 8.97876L15.2809 8.98333L15.284 8.9855L15.2861 8.98707L15.2861 8.98708C15.288 8.98848 15.2898 8.98986 15.2915 8.99154C15.297 8.99557 15.3022 8.99988 15.3071 9.00448L15.3078 9.00512C15.3095 9.00657 15.311 9.00786 15.3125 9.00937C15.3186 9.01512 15.3243 9.02087 15.3301 9.02749L15.3321 9.02921C15.3401 9.0387 15.3479 9.04848 15.3548 9.05883L18.3499 13.1038V9.22072C18.3499 9.05998 18.4808 8.92914 18.6421 8.92914ZM9.91602 14.4117H7.05718V9.22114C7.05718 9.05983 6.92635 8.92899 6.76532 8.92899H5.71288C5.55156 8.92899 5.42073 9.05983 5.42073 9.22114V15.756V15.7566C5.42073 15.8351 5.45207 15.9061 5.50239 15.9585C5.50354 15.9599 5.50469 15.9614 5.50642 15.9628L5.51073 15.9668C5.56335 16.0174 5.63409 16.0485 5.71259 16.0485H5.71288H9.91602C10.0773 16.0485 10.2076 15.9174 10.2076 15.756V14.7039C10.2076 14.5426 10.0773 14.4117 9.91602 14.4117ZM25.7961 10.2736C25.7961 10.4352 25.6659 10.5657 25.5046 10.5657H22.646V11.6702H25.5046C25.6659 11.6702 25.7961 11.8013 25.7961 11.9627V13.0148C25.7961 13.1761 25.6659 13.307 25.5046 13.307H22.646V14.4117H25.5046C25.6659 14.4117 25.7961 14.5429 25.7961 14.7039V15.7563C25.7961 15.9174 25.6659 16.0485 25.5046 16.0485H21.3014H21.3008C21.2226 16.0485 21.1516 16.0171 21.0993 15.9668C21.0978 15.9657 21.0961 15.9642 21.095 15.9628C21.0935 15.9616 21.0921 15.9599 21.0909 15.9585C21.0406 15.9061 21.0093 15.8351 21.0093 15.7566V15.7563V9.22143V9.22114C21.0093 9.14293 21.0403 9.07219 21.0904 9.01986C21.091 9.01905 21.0917 9.01825 21.0924 9.01744C21.0932 9.01652 21.094 9.0156 21.095 9.01468C21.0955 9.014 21.0962 9.01342 21.0969 9.01282C21.0974 9.01241 21.0979 9.01199 21.0984 9.01152C21.151 8.96062 21.2221 8.92899 21.3008 8.92899H21.3014H25.5046C25.6659 8.92899 25.7961 9.06012 25.7961 9.22143V10.2736Z" fill="#FF7777"/>
</g>
<defs>
<clipPath id="clip0">
<rect width="30" height="30" fill="white" transform="translate(0.5)"/>
</clipPath>
</defs>
</svg>
