<svg width="31" height="30" viewBox="0 0 31 30" fill="none" xmlns="http://www.w3.org/2000/svg">
<g clip-path="url(#clip0)">
<path d="M0.571289 30L2.68004 22.2962C1.37879 20.0413 0.695039 17.485 0.696289 14.8637C0.700039 6.66875 7.36879 0 15.5625 0C19.5388 0.00125 23.2713 1.55 26.0788 4.36C28.885 7.17 30.43 10.905 30.4288 14.8775C30.425 23.0738 23.7563 29.7425 15.5625 29.7425C13.075 29.7413 10.6238 29.1175 8.45254 27.9325L0.571289 30ZM8.81754 25.2413C10.9125 26.485 12.9125 27.23 15.5575 27.2313C22.3675 27.2313 27.915 21.6887 27.9188 14.875C27.9213 8.0475 22.4 2.5125 15.5675 2.51C8.75254 2.51 3.20879 8.0525 3.20629 14.865C3.20504 17.6462 4.02004 19.7287 5.38879 21.9075L4.14004 26.4675L8.81754 25.2413ZM23.0513 18.4113C22.9588 18.2563 22.7113 18.1637 22.3388 17.9775C21.9675 17.7913 20.1413 16.8925 19.8 16.7687C19.46 16.645 19.2125 16.5825 18.9638 16.955C18.7163 17.3263 18.0038 18.1637 17.7875 18.4113C17.5713 18.6588 17.3538 18.69 16.9825 18.5037C16.6113 18.3175 15.4138 17.9263 13.995 16.66C12.8913 15.675 12.145 14.4587 11.9288 14.0863C11.7125 13.715 11.9063 13.5138 12.0913 13.3288C12.2588 13.1625 12.4625 12.895 12.6488 12.6775C12.8375 12.4625 12.8988 12.3075 13.0238 12.0588C13.1475 11.8113 13.0863 11.5938 12.9925 11.4075C12.8988 11.2225 12.1563 9.39375 11.8475 8.65C11.545 7.92625 11.2388 8.02375 11.0113 8.0125L10.2988 8C10.0513 8 9.64879 8.0925 9.30879 8.465C8.96879 8.8375 8.00879 9.735 8.00879 11.5638C8.00879 13.3925 9.34004 15.1587 9.52504 15.4062C9.71129 15.6537 12.1438 19.4062 15.87 21.015C16.7563 21.3975 17.4488 21.6262 17.9875 21.7975C18.8775 22.08 19.6875 22.04 20.3275 21.945C21.0413 21.8387 22.525 21.0462 22.835 20.1787C23.145 19.31 23.145 18.5662 23.0513 18.4113Z" fill="#9E9E9E"/>
</g>
<defs>
<clipPath id="clip0">
<rect width="30" height="30" fill="white" transform="translate(0.5)"/>
</clipPath>
</defs>
</svg>
