<svg width="21" height="21" viewBox="0 0 21 21" fill="none" xmlns="http://www.w3.org/2000/svg">
<g clip-path="url(#clip0)">
<path fill-rule="evenodd" clip-rule="evenodd" d="M15.8198 17.9826C16.0882 18.1726 16.434 18.2201 16.7423 18.1035C17.0507 17.986 17.2773 17.7226 17.3457 17.4035C18.0698 14.0001 19.8265 5.38596 20.4857 2.29012C20.5357 2.05679 20.4523 1.81429 20.269 1.65846C20.0857 1.50262 19.8315 1.45762 19.6048 1.54179C16.1107 2.83512 5.34984 6.87263 0.95151 8.50013C0.672343 8.60346 0.490677 8.87179 0.499843 9.16596C0.509843 9.46096 0.708177 9.71679 0.99401 9.80263C2.96651 10.3926 5.55568 11.2135 5.55568 11.2135C5.55568 11.2135 6.76568 14.8676 7.39651 16.726C7.47568 16.9593 7.65818 17.1426 7.89901 17.206C8.13901 17.2685 8.39568 17.2026 8.57484 17.0335C9.58818 16.0768 11.1548 14.5976 11.1548 14.5976C11.1548 14.5976 14.1315 16.7801 15.8198 17.9826ZM6.64484 10.7518L8.04401 15.3668L8.35484 12.4443C8.35484 12.4443 13.7607 7.56846 16.8423 4.78929C16.9323 4.70763 16.9448 4.57096 16.8698 4.47513C16.7957 4.37929 16.659 4.35679 16.5565 4.42179C12.9848 6.70263 6.64484 10.7518 6.64484 10.7518Z" fill="black"/>
</g>
<defs>
<clipPath id="clip0">
<rect width="20" height="20" fill="white" transform="translate(0.5 0.5)"/>
</clipPath>
</defs>
</svg>
