<svg width="24" height="24" viewBox="0 0 24 24" fill="none" xmlns="http://www.w3.org/2000/svg">
<rect width="24" height="24" fill="black"/>
<path d="M9.34803 18.6C15.7615 18.6 19.2704 13.3671 19.2704 8.83059C19.2704 8.68348 19.2671 8.5331 19.2605 8.38599C19.9431 7.89997 20.5321 7.29796 21 6.60825C20.3643 6.88673 19.6893 7.0686 18.9982 7.14765C19.7259 6.71817 20.2708 6.04347 20.5318 5.24863C19.8472 5.6481 19.0985 5.92989 18.3179 6.08192C17.7918 5.53163 17.0964 5.16727 16.3389 5.04518C15.5815 4.92309 14.8043 5.05006 14.1276 5.40647C13.4508 5.76288 12.9121 6.32887 12.5948 7.01694C12.2775 7.70501 12.1993 8.47683 12.3722 9.21308C10.9859 9.14459 9.62979 8.79003 8.39165 8.1724C7.15352 7.55477 6.06103 6.68785 5.18502 5.62784C4.73978 6.38364 4.60354 7.278 4.80398 8.12916C5.00442 8.98031 5.5265 9.72438 6.26412 10.2102C5.71036 10.1928 5.16873 10.0461 4.68398 9.7819V9.8244C4.68349 10.6176 4.96199 11.3864 5.47214 12.0003C5.98229 12.6141 6.6926 13.0351 7.48234 13.1916C6.96937 13.3298 6.43099 13.3499 5.90885 13.2504C6.1317 13.9325 6.56528 14.5292 7.14909 14.957C7.73289 15.3848 8.43779 15.6225 9.16541 15.6369C7.93013 16.5922 6.40421 17.1104 4.8334 17.108C4.55483 17.1076 4.27653 17.0907 4 17.0576C5.59577 18.0656 7.45208 18.601 9.34803 18.6Z" fill="white"/>
</svg>
