<svg width="70" height="71" viewBox="0 0 70 71" fill="none" xmlns="http://www.w3.org/2000/svg">
<path fill-rule="evenodd" clip-rule="evenodd" d="M44.2597 38.8547C43.7925 38.6209 41.4956 37.491 41.0672 37.3351C40.639 37.1793 40.3276 37.1013 40.0162 37.5689C39.7047 38.0365 38.8094 39.0884 38.5368 39.4002C38.2643 39.7118 37.9918 39.7509 37.5246 39.517C37.0574 39.2833 35.552 38.7901 33.7676 37.1989C32.3787 35.9606 31.4411 34.431 31.1685 33.9634C30.896 33.4958 31.1395 33.2431 31.3734 33.0102C31.5835 32.801 31.8406 32.4648 32.0742 32.192C32.3078 31.9193 32.3856 31.7245 32.5414 31.4128C32.6971 31.1011 32.6192 30.8283 32.5024 30.5945C32.3856 30.3608 31.4513 28.0619 31.062 27.1268C30.6828 26.2161 30.2976 26.3393 30.0108 26.325C29.7386 26.3115 29.4268 26.3086 29.1154 26.3086C28.8039 26.3086 28.2978 26.4255 27.8695 26.893C27.4413 27.3606 26.2344 28.4906 26.2344 30.7893C26.2344 33.0882 27.9085 35.3091 28.1421 35.6208C28.3757 35.9325 31.4365 40.65 36.1231 42.673C37.2377 43.1542 38.108 43.4416 38.7865 43.6569C39.9057 44.0123 40.9242 43.9622 41.7292 43.8419C42.6267 43.7079 44.4933 42.712 44.8826 41.6211C45.2719 40.5301 45.2719 39.595 45.1551 39.4002C45.0384 39.2054 44.7269 39.0884 44.2597 38.8547ZM35.7346 50.4904H35.7283C32.9396 50.4893 30.2045 49.7404 27.8184 48.3249L27.2509 47.9881L21.369 49.5306L22.939 43.7976L22.5694 43.2099C21.0138 40.7363 20.1922 37.8773 20.1934 34.9418C20.1968 26.3758 27.1685 19.4068 35.7408 19.4068C39.8917 19.4085 43.7937 21.0266 46.7279 23.9631C49.6621 26.8997 51.2771 30.8031 51.2754 34.9543C51.2719 43.5209 44.3003 50.4904 35.7346 50.4904ZM48.9603 21.7318C45.4302 18.1986 40.7355 16.2519 35.7337 16.25C25.4277 16.25 17.0399 24.6346 17.0357 34.9406C17.0344 38.2351 17.8953 41.4509 19.5315 44.2854L16.8789 53.9714L26.791 51.3723C29.522 52.8614 32.5968 53.646 35.7262 53.6474H35.7338H35.7339C46.0389 53.6474 54.4275 45.2617 54.4317 34.9556C54.4336 29.9611 52.4906 25.2648 48.9603 21.7318Z" fill="#E0E5E9"/>
</svg>
